<svg width="1310" height="191" viewBox="0 0 1310 191" fill="none" xmlns="http://www.w3.org/2000/svg">
<path d="M0 191V3.14835H25.0051L27.9004 23.3503C32.1118 17.2285 37.9024 11.8063 45.2723 7.08379C52.6422 2.36126 62.1178 0 73.6991 0C86.3333 0 97.4759 2.97344 107.127 8.92032C116.778 14.8672 124.323 23.0005 129.763 33.3201C135.378 43.6396 138.186 55.3585 138.186 68.4766C138.186 81.5948 135.378 93.3136 129.763 103.633C124.323 113.778 116.778 121.824 107.127 127.771C97.4759 133.543 86.2455 136.429 73.4359 136.429C63.2584 136.429 54.2215 134.417 46.3252 130.394C38.6043 126.371 32.4627 120.687 27.9004 113.341V191H0ZM68.6981 112.291C80.6304 112.291 90.4569 108.268 98.1778 100.223C105.899 92.0018 109.759 81.3324 109.759 68.2143C109.759 59.6438 108.004 52.0353 104.495 45.3887C100.985 38.7422 96.1598 33.5824 90.0182 29.9093C83.8766 26.0614 76.7699 24.1374 68.6981 24.1374C56.7659 24.1374 46.9393 28.2477 39.2185 36.4684C31.6731 44.6891 27.9004 55.2711 27.9004 68.2143C27.9004 81.3324 31.6731 92.0018 39.2185 100.223C46.9393 108.268 56.7659 112.291 68.6981 112.291Z" fill="#111111"/>
<path d="M216.53 136.429C200.738 136.429 188.279 131.531 179.154 121.736C170.205 111.941 165.731 97.3365 165.731 77.9217V3.14835H193.631V75.0357C193.631 100.223 203.984 112.816 224.69 112.816C235.043 112.816 243.553 109.143 250.221 101.797C256.889 94.4505 260.223 83.956 260.223 70.3132V3.14835H288.124V133.28H263.382L261.276 110.455C257.24 118.5 251.274 124.885 243.378 129.607C235.657 134.155 226.708 136.429 216.53 136.429Z" fill="#111111"/>
<path d="M323.616 133.28V3.14835H348.621L350.99 27.8104C355.552 19.2399 361.869 12.5059 369.941 7.60851C378.189 2.53617 388.103 0 399.684 0V29.1223H392.051C384.33 29.1223 377.399 30.4341 371.257 33.0577C365.291 35.5064 360.466 39.7917 356.781 45.9135C353.271 51.8603 351.516 60.1685 351.516 70.8379V133.28H323.616Z" fill="#111111"/>
<path d="M449.663 133.28L411.235 3.14835H439.135L464.403 101.272L492.83 3.14835H523.889L552.316 101.272L577.584 3.14835H605.484L567.056 133.28H538.366L508.36 30.9588L478.353 133.28H449.663Z" fill="#111111"/>
<path d="M666.776 136.429C655.721 136.429 646.596 134.592 639.402 130.919C632.207 127.246 626.855 122.436 623.346 116.489C619.836 110.367 618.082 103.721 618.082 96.5495C618.082 83.956 622.995 73.9863 632.821 66.6401C642.648 59.294 656.686 55.6209 674.935 55.6209H709.153V53.2596C709.153 43.1149 706.345 35.5064 700.73 30.4341C695.29 25.3617 688.183 22.8255 679.41 22.8255C671.689 22.8255 664.933 24.7495 659.142 28.5975C653.527 32.2706 650.106 37.7802 648.877 45.1264H620.977C621.854 35.6813 625.013 27.6355 630.452 20.989C636.068 14.1676 643.087 9.00778 651.509 5.50961C660.108 1.83654 669.495 0 679.673 0C697.922 0 712.048 4.80998 722.05 14.4299C732.052 23.875 737.053 36.8182 737.053 53.2596V133.28H712.838L710.469 110.979C706.784 118.151 701.432 124.185 694.413 129.082C687.394 133.98 678.181 136.429 666.776 136.429ZM672.303 113.865C679.848 113.865 686.166 112.116 691.254 108.618C696.518 104.945 700.554 100.135 703.362 94.1882C706.345 88.2413 708.188 81.6822 708.889 74.511H677.83C666.776 74.511 658.879 76.435 654.141 80.283C649.579 84.131 647.298 88.9409 647.298 94.7129C647.298 100.66 649.491 105.382 653.878 108.88C658.441 112.204 664.582 113.865 672.303 113.865Z" fill="#111111"/>
<path d="M769.584 191V3.14835H794.589L797.485 23.3503C801.696 17.2285 807.487 11.8063 814.857 7.08379C822.226 2.36126 831.702 0 843.283 0C855.918 0 867.06 2.97344 876.711 8.92032C886.362 14.8672 893.908 23.0005 899.347 33.3201C904.963 43.6396 907.77 55.3585 907.77 68.4766C907.77 81.5948 904.963 93.3136 899.347 103.633C893.908 113.778 886.362 121.824 876.711 127.771C867.06 133.543 855.83 136.429 843.02 136.429C832.843 136.429 823.806 134.417 815.909 130.394C808.189 126.371 802.047 120.687 797.485 113.341V191H769.584ZM838.282 112.291C850.215 112.291 860.041 108.268 867.762 100.223C875.483 92.0018 879.343 81.3324 879.343 68.2143C879.343 59.6438 877.589 52.0353 874.079 45.3887C870.57 38.7422 865.744 33.5824 859.602 29.9093C853.461 26.0614 846.354 24.1374 838.282 24.1374C826.35 24.1374 816.524 28.2477 808.803 36.4684C801.257 44.6891 797.485 55.2711 797.485 68.2143C797.485 81.3324 801.257 92.0018 808.803 100.223C816.524 108.268 826.35 112.291 838.282 112.291Z" fill="#111111"/>
<path d="M999.012 136.429C986.553 136.429 975.323 133.63 965.321 128.033C955.494 122.261 947.686 114.303 941.895 104.158C936.104 93.8384 933.209 81.8571 933.209 68.2143C933.209 54.5714 936.104 42.6777 941.895 32.533C947.861 22.2134 955.845 14.255 965.847 8.65796C975.849 2.88599 986.992 0 999.275 0C1011.73 0 1022.88 2.88599 1032.7 8.65796C1042.7 14.255 1050.6 22.2134 1056.39 32.533C1062.36 42.6777 1065.34 54.5714 1065.34 68.2143C1065.34 81.8571 1062.36 93.8384 1056.39 104.158C1050.6 114.303 1042.7 122.261 1032.7 128.033C1022.7 133.63 1011.47 136.429 999.012 136.429ZM999.012 112.554C1005.68 112.554 1011.82 110.892 1017.44 107.569C1023.23 104.245 1027.88 99.348 1031.39 92.8764C1034.9 86.2299 1036.65 78.0092 1036.65 68.2143C1036.65 58.4194 1034.9 50.2862 1031.39 43.8146C1028.05 37.168 1023.49 32.1831 1017.7 28.8599C1012.08 25.5366 1005.94 23.875 999.275 23.875C992.607 23.875 986.378 25.5366 980.587 28.8599C974.972 32.1831 970.41 37.168 966.9 43.8146C963.391 50.2862 961.636 58.4194 961.636 68.2143C961.636 78.0092 963.391 86.2299 966.9 92.8764C970.41 99.348 974.972 104.245 980.587 107.569C986.202 110.892 992.344 112.554 999.012 112.554Z" fill="#111111"/>
<path d="M1095.51 133.28V3.14835H1120.52L1122.89 27.8104C1127.45 19.2399 1133.77 12.5059 1141.84 7.60851C1150.09 2.53617 1160 0 1171.58 0V29.1223H1163.95C1156.23 29.1223 1149.3 30.4341 1143.15 33.0577C1137.19 35.5064 1132.36 39.7917 1128.68 45.9135C1125.17 51.8603 1123.41 60.1685 1123.41 70.8379V133.28H1095.51Z" fill="#111111"/>
<path d="M1239.72 136.429C1228.67 136.429 1219.54 134.592 1212.35 130.919C1205.15 127.246 1199.8 122.436 1196.29 116.489C1192.78 110.367 1191.03 103.721 1191.03 96.5495C1191.03 83.956 1195.94 73.9863 1205.77 66.6401C1215.59 59.294 1229.63 55.6209 1247.88 55.6209H1282.1V53.2596C1282.1 43.1149 1279.29 35.5064 1273.68 30.4341C1268.24 25.3617 1261.13 22.8255 1252.36 22.8255C1244.64 22.8255 1237.88 24.7495 1232.09 28.5975C1226.47 32.2706 1223.05 37.7802 1221.82 45.1264H1193.92C1194.8 35.6813 1197.96 27.6355 1203.4 20.989C1209.01 14.1676 1216.03 9.00778 1224.46 5.50961C1233.05 1.83654 1242.44 0 1252.62 0C1270.87 0 1284.99 4.80998 1295 14.4299C1305 23.875 1310 36.8182 1310 53.2596V133.28H1285.78L1283.42 110.979C1279.73 118.151 1274.38 124.185 1267.36 129.082C1260.34 133.98 1251.13 136.429 1239.72 136.429ZM1245.25 113.865C1252.8 113.865 1259.11 112.116 1264.2 108.618C1269.47 104.945 1273.5 100.135 1276.31 94.1882C1279.29 88.2413 1281.13 81.6822 1281.84 74.511H1250.78C1239.72 74.511 1231.83 76.435 1227.09 80.283C1222.53 84.131 1220.24 88.9409 1220.24 94.7129C1220.24 100.66 1222.44 105.382 1226.83 108.88C1231.39 112.204 1237.53 113.865 1245.25 113.865Z" fill="#111111"/>
</svg>
